# Blender 4.1.1
# www.blender.org
mtllib Chair.mtl
o Cube.001
v -0.547534 -0.025992 0.500405
v -0.547534 0.969214 0.500405
v -0.547534 -0.025992 -0.500405
v -0.547534 0.969214 -0.500405
v -0.467534 -0.025992 0.500405
v -0.467534 0.969214 0.500405
v -0.467534 -0.025992 -0.500405
v -0.467534 0.969214 -0.500405
v -0.500000 -0.050041 0.500405
v -0.500000 0.050041 0.500405
v -0.500000 -0.050041 -0.500405
v -0.500000 0.050041 -0.500405
v 0.500000 -0.050041 0.500405
v 0.500000 0.050041 0.500405
v 0.500000 -0.050041 -0.500405
v 0.500000 0.050041 -0.500405
v -0.542246 -0.624711 0.499055
v -0.542246 -0.017812 0.499055
v -0.542246 -0.624711 0.377675
v -0.542246 -0.017812 0.377675
v -0.433004 -0.624711 0.499055
v -0.433004 -0.017812 0.499055
v -0.433004 -0.624711 0.377675
v -0.433004 -0.017812 0.377675
v -0.542246 -0.624711 -0.380731
v -0.542246 -0.017812 -0.380731
v -0.542246 -0.624711 -0.502111
v -0.542246 -0.017812 -0.502111
v -0.433004 -0.624711 -0.380731
v -0.433004 -0.017812 -0.380731
v -0.433004 -0.624711 -0.502111
v -0.433004 -0.017812 -0.502111
v 0.392457 -0.624711 -0.380731
v 0.392457 -0.017812 -0.380731
v 0.392457 -0.624711 -0.502111
v 0.392457 -0.017812 -0.502111
v 0.501699 -0.624711 -0.380731
v 0.501699 -0.017812 -0.380731
v 0.501699 -0.624711 -0.502111
v 0.501699 -0.017812 -0.502111
v 0.392457 -0.624711 0.499055
v 0.392457 -0.017812 0.499055
v 0.392457 -0.624711 0.377675
v 0.392457 -0.017812 0.377675
v 0.501699 -0.624711 0.499055
v 0.501699 -0.017812 0.499055
v 0.501699 -0.624711 0.377675
v 0.501699 -0.017812 0.377675
vn -0.9936 -0.0799 0.0794
vn -0.9936 0.0799 0.0794
vn -0.9936 -0.0799 -0.0794
vn -0.9936 0.0799 -0.0794
vn 0.9936 -0.0799 0.0794
vn 0.9936 0.0799 0.0794
vn 0.9936 -0.0799 -0.0794
vn 0.9936 0.0799 -0.0794
vt 0.375000 0.000000
vt 0.625000 0.000000
vt 0.625000 0.250000
vt 0.375000 0.250000
vt 0.625000 0.500000
vt 0.375000 0.500000
vt 0.625000 0.750000
vt 0.375000 0.750000
vt 0.625000 1.000000
vt 0.375000 1.000000
vt 0.125000 0.500000
vt 0.125000 0.750000
vt 0.875000 0.500000
vt 0.875000 0.750000
s 1
usemtl Wood
f 1/1/1 2/2/2 4/3/4 3/4/3
f 3/4/3 4/3/4 8/5/8 7/6/7
f 7/6/7 8/5/8 6/7/6 5/8/5
f 5/8/5 6/7/6 2/9/2 1/10/1
f 3/11/3 7/6/7 5/8/5 1/12/1
f 8/5/8 4/13/4 2/14/2 6/7/6
f 9/1/1 10/2/2 12/3/4 11/4/3
f 11/4/3 12/3/4 16/5/8 15/6/7
f 15/6/7 16/5/8 14/7/6 13/8/5
f 13/8/5 14/7/6 10/9/2 9/10/1
f 11/11/3 15/6/7 13/8/5 9/12/1
f 16/5/8 12/13/4 10/14/2 14/7/6
f 17/1/1 18/2/2 20/3/4 19/4/3
f 19/4/3 20/3/4 24/5/8 23/6/7
f 23/6/7 24/5/8 22/7/6 21/8/5
f 21/8/5 22/7/6 18/9/2 17/10/1
f 19/11/3 23/6/7 21/8/5 17/12/1
f 24/5/8 20/13/4 18/14/2 22/7/6
f 25/1/1 26/2/2 28/3/4 27/4/3
f 27/4/3 28/3/4 32/5/8 31/6/7
f 31/6/7 32/5/8 30/7/6 29/8/5
f 29/8/5 30/7/6 26/9/2 25/10/1
f 27/11/3 31/6/7 29/8/5 25/12/1
f 32/5/8 28/13/4 26/14/2 30/7/6
f 33/1/1 34/2/2 36/3/4 35/4/3
f 35/4/3 36/3/4 40/5/8 39/6/7
f 39/6/7 40/5/8 38/7/6 37/8/5
f 37/8/5 38/7/6 34/9/2 33/10/1
f 35/11/3 39/6/7 37/8/5 33/12/1
f 40/5/8 36/13/4 34/14/2 38/7/6
f 41/1/1 42/2/2 44/3/4 43/4/3
f 43/4/3 44/3/4 48/5/8 47/6/7
f 47/6/7 48/5/8 46/7/6 45/8/5
f 45/8/5 46/7/6 42/9/2 41/10/1
f 43/11/3 47/6/7 45/8/5 41/12/1
f 48/5/8 44/13/4 42/14/2 46/7/6
