# Blender 4.1.1
# www.blender.org
mtllib LongAssWtf.mtl
o Cube.005
v -11.836000 -6.100001 107.400002
v 9.836000 -6.099999 107.400002
v -11.836000 -6.100001 -11.400002
v 9.836000 -6.099999 -11.400002
v -11.836000 -5.900001 107.400002
v 9.836000 -5.899999 107.400002
v -11.836000 -5.900001 -11.400002
v 9.836000 -5.899999 -11.400002
v 10.099999 -6.019999 107.399994
v 10.100000 6.020000 107.399994
v 10.099999 -6.019999 -11.400002
v 10.100000 6.020000 -11.400002
v 9.899999 -6.019999 107.399994
v 9.900000 6.020000 107.399994
v 9.899999 -6.019999 -11.400002
v 9.900000 6.020000 -11.400002
v 10.100001 -6.019999 -11.599998
v 10.100000 6.020000 -11.599998
v -11.899999 -6.020000 -11.599998
v -11.900000 6.020000 -11.599998
v 10.100001 -6.019999 -11.400002
v 10.100000 6.020000 -11.400002
v -11.899999 -6.020000 -11.399998
v -11.900000 6.020000 -11.399998
v -11.899999 -6.020000 107.399994
v -11.899999 6.020000 107.399994
v -11.899999 -6.020000 -11.400002
v -11.899999 6.020000 -11.400002
v -12.099999 -6.020000 107.399994
v -12.099999 6.020000 107.399994
v -12.099999 -6.020000 -11.400002
v -12.099999 6.020000 -11.400002
v 10.000000 -6.019999 107.399994
v 9.999999 6.020000 107.399994
v -12.000000 -6.020000 107.399994
v -12.000001 6.020000 107.399994
v 10.000000 -6.019999 107.599991
v 9.999999 6.020000 107.599991
v -12.000000 -6.020000 107.599991
v -12.000001 6.020000 107.599991
v -0.998791 6.020000 107.399994
v -0.998791 6.020000 107.599991
v -6.499395 6.020000 107.399994
v -6.499395 -6.020000 107.599991
v -6.499395 -6.020000 107.399994
v -6.499395 6.020000 107.599991
v 4.500605 -6.020000 107.399994
v 4.500605 6.020000 107.599991
v 4.500605 6.020000 107.399994
v 4.500605 -6.020000 107.599991
v 10.000000 0.000000 107.399994
v -12.000000 0.000000 107.399994
v -12.000000 0.000000 107.599991
v 10.000000 0.000000 107.599991
v -0.998791 0.000000 107.599991
v -0.998791 0.000000 107.399994
v -6.499395 0.000000 107.599991
v -6.499395 0.000000 107.399994
v 4.500605 0.000000 107.399994
v 4.500605 0.000000 107.599991
v -12.000000 -3.010000 107.399994
v -12.000000 -3.010000 107.599991
v 10.000000 -3.010000 107.599991
v -6.499395 -3.010000 107.599991
v -6.499395 -3.010000 107.399994
v 4.500605 -3.010000 107.399994
v 4.500605 -3.010000 107.599991
v 10.000000 -3.010000 107.399994
v 9.999999 3.010000 107.399994
v -12.000001 3.010000 107.399994
v -12.000001 3.010000 107.599991
v 9.999999 3.010000 107.599991
v -0.998791 3.009999 107.599991
v -0.998791 3.009999 107.399994
v -6.499395 3.010000 107.599991
v -6.499395 3.010000 107.399994
v 4.500605 3.009999 107.399994
v 4.500605 3.009999 107.599991
v 1.750907 6.020000 107.399994
v 1.750907 -6.020000 107.599991
v 1.750907 -6.020000 107.399994
v 1.750907 6.020000 107.599991
v 1.750907 0.000000 107.599991
v 1.750907 0.000000 107.399994
v 1.750907 -3.010000 107.399994
v 1.750907 -3.010000 107.599991
v 1.750907 3.009999 107.599991
v 1.750907 3.009999 107.399994
v -3.749093 -6.019999 107.399994
v -3.749093 6.020000 107.599991
v -3.749093 6.020000 107.399994
v -3.749093 -6.019999 107.599991
v -3.749093 0.000000 107.399994
v -3.749093 0.000000 107.599991
v -3.749093 -3.010000 107.599991
v -3.749093 -3.010000 107.399994
v -3.749093 3.010000 107.399994
v -3.749093 3.010000 107.599991
v -12.000000 -4.514999 107.399994
v -12.000000 -4.514999 107.599991
v 10.000000 -4.514999 107.599991
v -6.499395 -4.514999 107.599991
v -6.499395 -4.514999 107.399994
v 4.500605 -4.514999 107.399994
v 4.500605 -4.514999 107.599991
v 10.000000 -4.514999 107.399994
v 1.750907 -4.514999 107.599991
v 1.750907 -4.514999 107.399994
v -3.749093 -4.514999 107.399994
v -3.749093 -4.514999 107.599991
v 10.000000 -1.505000 107.399994
v -12.000000 -1.505000 107.399994
v -12.000000 -1.505000 107.599991
v 10.000000 -1.505000 107.599991
v -6.499395 -1.505000 107.599991
v -6.499395 -1.505000 107.399994
v 4.500605 -1.505000 107.399994
v 4.500605 -1.505000 107.599991
v 1.750907 -1.505000 107.399994
v 1.750907 -1.505000 107.599991
v -3.749093 -1.504999 107.599991
v -3.749093 -1.504999 107.399994
v -12.000001 1.505001 107.399994
v -12.000001 1.505001 107.599991
v 9.999999 1.505000 107.599991
v -0.998791 1.505001 107.599991
v -0.998791 1.505001 107.399994
v -6.499395 1.505000 107.599991
v -6.499395 1.505000 107.399994
v 4.500605 1.505000 107.399994
v 4.500605 1.505000 107.599991
v 9.999999 1.505000 107.399994
v 1.750907 1.505000 107.399994
v 1.750907 1.505000 107.599991
v -3.749093 1.505001 107.599991
v -3.749093 1.505001 107.399994
v -11.836000 5.899999 107.399994
v 9.836000 5.900001 107.399994
v -11.836000 5.899999 -11.400002
v 9.836000 5.900001 -11.400002
v -11.836000 6.099998 107.399994
v 9.836000 6.100000 107.399994
v -11.836000 6.099998 -11.400002
v 9.836000 6.100000 -11.400002
vn -0.0000 -1.0000 -0.0000
vn -0.0000 -0.0000 -1.0000
vn -0.0000 1.0000 -0.0000
vn -0.0000 -0.0000 1.0000
vn -1.0000 -0.0000 -0.0000
vn 1.0000 -0.0000 -0.0000
vt -0.319718 -4.867835
vt 1.319718 -4.867835
vt 1.319718 -2.183917
vt -0.319718 -2.183917
vt 1.319718 0.500000
vt -0.319718 0.500000
vt 1.319718 3.183917
vt -0.319718 3.183917
vt 1.319718 5.867835
vt -0.319718 5.867835
vt -1.959156 0.500000
vt -1.959156 3.183917
vt 2.959156 0.500000
vt 2.959156 3.183917
vt 0.217491 -0.304273
vt 0.782509 -0.304273
vt 0.782509 0.097863
vt 0.217491 0.097863
vt 0.782509 0.500000
vt 0.217491 0.500000
vt 0.782509 0.902137
vt 0.217491 0.902137
vt 0.782509 1.304273
vt 0.217491 1.304273
vt -0.347526 0.500000
vt -0.347526 0.902137
vt 1.347526 0.500000
vt 1.347526 0.902137
vt 0.641254 -0.002682
vt 0.782509 -0.002682
vt 0.641254 0.097863
vt 0.641254 0.500000
vt 0.641254 0.801613
vt 0.782509 0.801613
vt 0.641254 0.902137
vt 0.641254 1.304273
vt -0.347526 0.801613
vt 0.217491 0.801613
vt 1.347526 0.801613
vt 0.782509 0.650818
vt 1.347526 0.650818
vt 1.347526 0.701090
vt 0.782509 0.701090
vt 0.641254 0.650818
vt 0.641254 0.701090
vt 0.641254 -0.153488
vt 0.782509 -0.153488
vt 0.782509 -0.103227
vt 0.641254 -0.103227
vt 0.782509 0.600545
vt 0.641254 0.600545
vt 0.217491 0.600545
vt -0.347526 0.600545
vt 1.347526 0.600545
vt 0.641254 -0.052954
vt 0.782509 -0.052954
vt 0.641254 -0.304273
vt 0.782509 -0.203750
vt 0.641254 -0.203750
vt 0.782509 0.751352
vt 1.347526 0.751352
vt -0.347526 0.751352
vt 0.217491 0.751352
vt 0.641254 0.751352
vt 0.429373 0.751352
vt 0.500000 0.751352
vt 0.500000 0.801613
vt 0.429373 0.801613
vt 0.429373 -0.304273
vt 0.500000 -0.304273
vt 0.500000 -0.203750
vt 0.429373 -0.203750
vt 0.429373 -0.052954
vt 0.500000 -0.052954
vt 0.500000 -0.002682
vt 0.429373 -0.002682
vt 0.429373 0.500000
vt 0.500000 0.500000
vt 0.500000 0.600545
vt 0.429373 0.600545
vt 0.429373 0.902137
vt 0.500000 0.902137
vt 0.500000 1.304273
vt 0.429373 1.304273
vt 0.429373 0.097863
vt 0.500000 0.097863
vt 0.288118 -0.002682
vt 0.358746 -0.002682
vt 0.358746 0.097863
vt 0.288118 0.097863
vt 0.358746 0.500000
vt 0.288118 0.500000
vt 0.288118 0.801613
vt 0.358746 0.801613
vt 0.358746 0.902137
vt 0.288118 0.902137
vt 0.358746 1.304273
vt 0.288118 1.304273
vt 0.358746 0.600545
vt 0.288118 0.600545
vt 0.288118 -0.052954
vt 0.358746 -0.052954
vt 0.288118 -0.304273
vt 0.358746 -0.304273
vt 0.358746 -0.203750
vt 0.288118 -0.203750
vt 0.288118 0.751352
vt 0.358746 0.751352
vt 0.570627 0.751352
vt 0.570627 0.801613
vt 0.570627 -0.304273
vt 0.570627 -0.203750
vt 0.570627 -0.052954
vt 0.570627 -0.002682
vt 0.570627 0.500000
vt 0.570627 0.600545
vt 0.570627 -0.153488
vt 0.570627 -0.103227
vt 0.570627 0.650818
vt 0.570627 0.701090
vt 0.570627 0.902137
vt 0.570627 1.304273
vt 0.570627 0.097863
vt 0.358746 -0.153488
vt 0.288118 -0.153488
vt 0.500000 -0.153488
vt 0.429373 -0.153488
vt 0.358746 0.650818
vt 0.288118 0.650818
vt 0.500000 0.650818
vt 0.429373 0.650818
vt 0.217491 0.650818
vt -0.347526 0.650818
vt 0.217491 -0.203750
vt 0.217491 -0.153488
vt 0.217491 -0.052954
vt 0.217491 -0.002682
vt 0.500000 -0.103227
vt 0.500000 0.701090
s 0
usemtl Floorio
f 1/1/1 3/4/1 4/3/1 2/2/1
f 3/4/2 7/6/2 8/5/2 4/3/2
f 7/6/3 5/8/3 6/7/3 8/5/3
f 5/8/4 1/10/4 2/9/4 6/7/4
f 3/11/5 1/12/5 5/8/5 7/6/5
f 8/5/6 6/7/6 2/14/6 4/13/6
usemtl wood
f 9/1/6 11/4/6 12/3/6 10/2/6
f 11/4/2 15/6/2 16/5/2 12/3/2
f 15/6/5 13/8/5 14/7/5 16/5/5
f 13/8/4 9/10/4 10/9/4 14/7/4
f 11/11/1 9/12/1 13/8/1 15/6/1
f 16/5/3 14/7/3 10/14/3 12/13/3
f 17/15/2 19/18/2 20/17/2 18/16/2
f 19/18/5 23/20/5 24/19/5 20/17/5
f 23/20/4 21/22/4 22/21/4 24/19/4
f 21/22/6 17/24/6 18/23/6 22/21/6
f 19/25/1 17/26/1 21/22/1 23/20/1
f 24/19/3 22/21/3 18/28/3 20/27/3
usemtl wood.001
f 25/1/6 27/4/6 28/3/6 26/2/6
f 27/4/2 31/6/2 32/5/2 28/3/2
f 31/6/5 29/8/5 30/7/5 32/5/5
f 29/8/4 25/10/4 26/9/4 30/7/4
f 27/11/1 25/12/1 29/8/1 31/6/1
f 32/5/3 30/7/3 26/14/3 28/13/3
usemtl wood.002
f 76/29/2 70/31/2 36/17/2 43/30/2
f 70/31/5 71/32/5 40/19/5 36/17/5
f 78/33/4 72/35/4 38/21/4 48/34/4
f 72/35/6 69/36/6 34/23/6 38/21/6
f 47/37/1 33/26/1 37/22/1 50/38/1
f 48/34/3 38/21/3 34/28/3 49/39/3
f 90/40/3 42/43/3 41/42/3 91/41/3
f 98/44/4 73/45/4 42/43/4 90/40/4
f 88/46/2 74/49/2 41/48/2 79/47/2
f 71/32/4 75/51/4 46/50/4 40/19/4
f 35/25/1 45/53/1 44/52/1 39/20/1
f 40/19/3 46/50/3 43/54/3 36/27/3
f 97/55/2 76/29/2 43/30/2 91/56/2
f 69/57/2 77/59/2 49/58/2 34/16/2
f 82/60/3 48/34/3 49/39/3 79/61/3
f 81/62/1 47/37/1 50/38/1 80/63/1
f 87/64/4 78/33/4 48/34/4 82/60/4
f 120/65/4 118/68/4 60/67/4 83/66/4
f 111/69/2 117/72/2 59/71/2 51/70/2
f 122/73/2 116/76/2 58/75/2 93/74/2
f 113/77/4 115/80/4 57/79/4 53/78/4
f 114/81/6 111/84/6 51/83/6 54/82/6
f 118/68/4 114/81/4 54/82/4 60/67/4
f 112/85/5 113/77/5 53/78/5 52/86/5
f 116/76/2 112/85/2 52/86/2 58/75/2
f 103/87/2 99/90/2 61/89/2 65/88/2
f 99/90/5 100/92/5 62/91/5 61/89/5
f 105/93/4 101/96/4 63/95/4 67/94/4
f 101/96/6 106/98/6 68/97/6 63/95/6
f 100/92/4 102/100/4 64/99/4 62/91/4
f 109/101/2 103/87/2 65/88/2 96/102/2
f 106/103/2 104/106/2 66/105/2 68/104/2
f 107/107/4 105/93/4 67/94/4 86/108/4
f 134/109/4 131/110/4 78/33/4 87/64/4
f 132/111/2 130/112/2 77/59/2 69/57/2
f 136/113/2 129/114/2 76/29/2 97/55/2
f 124/115/4 128/116/4 75/51/4 71/32/4
f 133/117/2 127/118/2 74/49/2 88/46/2
f 135/119/4 126/120/4 73/45/4 98/44/4
f 125/121/6 132/122/6 69/36/6 72/35/6
f 131/110/4 125/121/4 72/35/4 78/33/4
f 123/123/5 124/115/5 71/32/5 70/31/5
f 129/114/2 123/123/2 70/31/2 76/29/2
f 130/112/2 133/117/2 88/46/2 77/59/2
f 126/120/4 134/109/4 87/64/4 73/45/4
f 104/106/2 108/125/2 85/124/2 66/105/2
f 117/72/2 119/127/2 84/126/2 59/71/2
f 73/45/4 87/64/4 82/60/4 42/43/4
f 42/43/3 82/60/3 79/61/3 41/42/3
f 77/59/2 88/46/2 79/47/2 49/58/2
f 128/116/4 135/119/4 98/44/4 75/51/4
f 127/118/2 136/113/2 97/55/2 74/49/2
f 102/100/4 110/129/4 95/128/4 64/99/4
f 115/80/4 121/131/4 94/130/4 57/79/4
f 74/49/2 97/55/2 91/56/2 41/48/2
f 75/51/4 98/44/4 90/40/4 46/50/4
f 45/53/1 89/133/1 92/132/1 44/52/1
f 46/50/3 90/40/3 91/41/3 43/54/3
f 44/52/4 92/132/4 110/129/4 102/100/4
f 47/134/2 81/135/2 108/125/2 104/106/2
f 80/63/4 50/38/4 105/93/4 107/107/4
f 33/15/2 47/134/2 104/106/2 106/103/2
f 89/136/2 45/137/2 103/87/2 109/101/2
f 39/20/4 44/52/4 102/100/4 100/92/4
f 37/22/6 33/24/6 106/98/6 101/96/6
f 50/38/4 37/22/4 101/96/4 105/93/4
f 35/18/5 39/20/5 100/92/5 99/90/5
f 45/137/2 35/18/2 99/90/2 103/87/2
f 64/99/4 95/128/4 121/131/4 115/80/4
f 66/105/2 85/124/2 119/127/2 117/72/2
f 65/88/2 61/89/2 112/85/2 116/76/2
f 61/89/5 62/91/5 113/77/5 112/85/5
f 67/94/4 63/95/4 114/81/4 118/68/4
f 63/95/6 68/97/6 111/84/6 114/81/6
f 62/91/4 64/99/4 115/80/4 113/77/4
f 96/102/2 65/88/2 116/76/2 122/73/2
f 68/104/2 66/105/2 117/72/2 111/69/2
f 86/108/4 67/94/4 118/68/4 120/65/4
f 56/138/2 93/74/2 136/113/2 127/118/2
f 57/79/4 94/130/4 135/119/4 128/116/4
f 55/139/4 83/66/4 134/109/4 126/120/4
f 59/71/2 84/126/2 133/117/2 130/112/2
f 58/75/2 52/86/2 123/123/2 129/114/2
f 52/86/5 53/78/5 124/115/5 123/123/5
f 60/67/4 54/82/4 125/121/4 131/110/4
f 54/82/6 51/83/6 132/122/6 125/121/6
f 94/130/4 55/139/4 126/120/4 135/119/4
f 84/126/2 56/138/2 127/118/2 133/117/2
f 53/78/4 57/79/4 128/116/4 124/115/4
f 93/74/2 58/75/2 129/114/2 136/113/2
f 51/70/2 59/71/2 130/112/2 132/111/2
f 83/66/4 60/67/4 131/110/4 134/109/4
f 80/63/5 107/107/5 86/108/5 120/65/5 83/66/5 84/126/5 119/127/5 85/124/5 108/125/5 81/62/5
f 89/133/6 109/101/6 96/102/6 122/73/6 93/74/6 94/130/6 121/131/6 95/128/6 110/129/6 92/132/6
f 84/126/1 83/66/1 55/139/1 56/138/1
f 56/138/1 55/139/1 94/130/1 93/74/1
usemtl Floorio.001
f 137/1/1 139/4/1 140/3/1 138/2/1
f 139/4/2 143/6/2 144/5/2 140/3/2
f 143/6/3 141/8/3 142/7/3 144/5/3
f 141/8/4 137/10/4 138/9/4 142/7/4
f 139/11/5 137/12/5 141/8/5 143/6/5
f 144/5/6 142/7/6 138/14/6 140/13/6
