# Blender 4.1.1
# www.blender.org
mtllib remote.mtl
o Cube
v 0.000000 0.206155 -0.000000
v 0.000000 -0.206155 0.000000
v 0.000000 0.206155 1.500000
v 0.000000 -0.206155 1.500000
v 0.000000 -0.206155 -1.500000
v 0.000000 0.206155 -1.500000
v -1.000000 -0.106155 2.813755
v -0.900000 -0.206155 2.790700
v -0.900000 -0.109493 2.916324
v -0.986640 -0.155479 2.801773
v -0.986640 -0.107211 2.864502
v -0.973663 -0.154416 2.850889
v -0.900000 -0.193852 2.844527
v -0.949934 -0.192185 2.793310
v -0.947821 -0.180258 2.844931
v -0.949934 -0.108437 2.902151
v -0.900000 -0.158371 2.890639
v -0.947821 -0.155278 2.877395
v -0.900000 0.109494 2.974376
v -0.900000 0.206155 2.900000
v -1.000000 0.106155 2.870037
v -0.900000 0.158372 2.974605
v -0.949934 0.108437 2.959643
v -0.947821 0.155279 2.959722
v -0.949934 0.192185 2.895204
v -0.900000 0.193852 2.947305
v -0.947821 0.180258 2.940501
v -0.986640 0.107212 2.921345
v -0.986640 0.155479 2.884206
v -0.973663 0.154416 2.932758
v -0.900000 -0.109494 -2.916324
v -0.900000 -0.206155 -2.790700
v -1.000000 -0.106155 -2.813755
v -0.900000 -0.158372 -2.890639
v -0.949934 -0.108437 -2.902151
v -0.947821 -0.155279 -2.877395
v -0.949934 -0.192185 -2.793310
v -0.900000 -0.193852 -2.844527
v -0.947821 -0.180258 -2.844931
v -0.986640 -0.107212 -2.864502
v -0.986640 -0.155479 -2.801773
v -0.973663 -0.154416 -2.850889
v -0.900000 0.206155 -2.900000
v -0.900000 0.109493 -2.974376
v -1.000000 0.106155 -2.870037
v -0.900000 0.193852 -2.947305
v -0.949934 0.192185 -2.895204
v -0.947821 0.180258 -2.940501
v -0.949934 0.108437 -2.959643
v -0.900000 0.158371 -2.974605
v -0.947821 0.155278 -2.959722
v -0.986640 0.155479 -2.884206
v -0.986640 0.107211 -2.921345
v -0.973663 0.154416 -2.932758
v 0.900000 -0.109493 2.916324
v 0.900000 -0.206155 2.790700
v 1.000000 -0.106155 2.813755
v 0.900000 -0.158371 2.890639
v 0.949934 -0.108437 2.902151
v 0.947821 -0.155278 2.877395
v 0.949934 -0.192185 2.793310
v 0.900000 -0.193852 2.844527
v 0.947821 -0.180258 2.844931
v 0.986640 -0.107211 2.864502
v 0.986640 -0.155479 2.801773
v 0.973663 -0.154416 2.850889
v 0.900000 0.109494 2.974376
v 1.000000 0.106155 2.870037
v 0.900000 0.206155 2.900000
v 0.949934 0.108437 2.959643
v 0.900000 0.158372 2.974605
v 0.947821 0.155279 2.959722
v 0.986640 0.155479 2.884206
v 0.986640 0.107212 2.921345
v 0.973663 0.154416 2.932758
v 0.900000 0.193852 2.947305
v 0.949934 0.192185 2.895204
v 0.947821 0.180258 2.940501
v 0.900000 -0.206155 -2.790700
v 0.900000 -0.109494 -2.916324
v 1.000000 -0.106155 -2.813755
v 0.900000 -0.193852 -2.844527
v 0.949934 -0.192185 -2.793310
v 0.947821 -0.180258 -2.844931
v 0.949934 -0.108437 -2.902151
v 0.900000 -0.158372 -2.890639
v 0.947821 -0.155279 -2.877395
v 0.986640 -0.155479 -2.801773
v 0.986640 -0.107212 -2.864502
v 0.973663 -0.154416 -2.850889
v 1.000000 0.106155 -2.870037
v 0.900000 0.109493 -2.974376
v 0.900000 0.206155 -2.900000
v 0.986640 0.107211 -2.921345
v 0.986640 0.155479 -2.884206
v 0.973663 0.154416 -2.932758
v 0.900000 0.158371 -2.974605
v 0.949934 0.108437 -2.959643
v 0.947821 0.155278 -2.959722
v 0.949934 0.192185 -2.895204
v 0.900000 0.193852 -2.947305
v 0.947821 0.180258 -2.940501
v -0.900000 -0.206155 0.000000
v -1.000000 -0.106155 0.000000
v -0.950000 -0.192758 0.000000
v -0.986603 -0.156155 0.000000
v -1.000000 0.106155 -0.000000
v -0.900000 0.206155 -0.000000
v -0.986603 0.156155 -0.000000
v -0.950000 0.192758 -0.000000
v 1.000000 -0.106155 0.000000
v 0.900000 -0.206155 0.000000
v 0.986603 -0.156155 0.000000
v 0.950000 -0.192758 0.000000
v 0.900000 0.206155 -0.000000
v 1.000000 0.106155 -0.000000
v 0.950000 0.192758 -0.000000
v 0.986603 0.156155 -0.000000
v -0.900000 -0.206155 1.500000
v -1.000000 -0.106155 1.500000
v -0.950000 -0.192757 1.500000
v -0.986603 -0.156155 1.500000
v 1.000000 0.106155 1.500000
v 0.900000 0.206155 1.500000
v 0.986603 0.156155 1.500000
v 0.950000 0.192758 1.500000
v -0.900000 0.206155 1.500000
v -1.000000 0.106155 1.500000
v -0.950000 0.192758 1.500000
v -0.986603 0.156155 1.500000
v 0.900000 -0.206155 1.500000
v 1.000000 -0.106155 1.500000
v 0.950000 -0.192757 1.500000
v 0.986603 -0.156155 1.500000
v -1.000000 0.106155 -1.500000
v -0.900000 0.206155 -1.500000
v -0.986603 0.156155 -1.500000
v -0.950000 0.192757 -1.500000
v 1.000000 -0.106155 -1.500000
v 0.900000 -0.206155 -1.500000
v 0.986603 -0.156155 -1.500000
v 0.950000 -0.192758 -1.500000
v -1.000000 -0.106155 -1.500000
v -0.900000 -0.206155 -1.500000
v -0.986603 -0.156155 -1.500000
v -0.950000 -0.192758 -1.500000
v 1.000000 0.106155 -1.500000
v 0.900000 0.206155 -1.500000
v 0.986603 0.156155 -1.500000
v 0.950000 0.192757 -1.500000
v 0.000000 -0.206155 -2.790700
v 0.000000 -0.109494 -2.916324
v 0.000000 -0.193205 -2.844133
v 0.000000 -0.157825 -2.890115
v 0.000000 0.206155 -2.900000
v 0.000000 0.109493 -2.974376
v 0.000000 0.193205 -2.946567
v 0.000000 0.157824 -2.973791
v 0.000000 -0.206155 2.790700
v 0.000000 -0.109493 2.916324
v 0.000000 -0.193205 2.844133
v 0.000000 -0.157824 2.890115
v 0.000000 0.206155 2.900000
v 0.000000 0.109494 2.974376
v 0.000000 0.193205 2.946567
v 0.000000 0.157825 2.973791
vn -0.0000 -1.0000 -0.0000
vn -0.0000 1.0000 -0.0000
vn -0.0000 -0.2562 -0.9666
vn 1.0000 -0.0000 -0.0000
vn -0.0000 -0.2562 0.9666
vn -1.0000 -0.0000 -0.0000
vn -0.9587 -0.2251 0.1736
vn -0.8537 -0.5094 0.1078
vn -0.7522 -0.5222 0.4018
vn -0.8535 -0.2347 0.4652
vn -0.4893 -0.8661 0.1027
vn -0.4360 -0.8149 0.3819
vn -0.1754 -0.9732 0.1490
vn -0.1204 -0.9000 0.4190
vn -0.1204 -0.6356 0.7626
vn -0.4360 -0.5779 0.6899
vn -0.1773 -0.3932 0.9022
vn -0.4904 -0.3209 0.8102
vn -0.1882 -0.0775 0.9791
vn -0.1454 0.3172 0.9372
vn -0.4940 0.2805 0.8229
vn -0.5113 -0.1017 0.8534
vn -0.1454 0.8246 0.5467
vn -0.4940 0.7236 0.4820
vn -0.1865 0.9666 0.1760
vn -0.5100 0.8517 0.1206
vn -0.8761 0.4665 0.1221
vn -0.8146 0.3537 0.4597
vn -0.9794 0.1228 0.1602
vn -0.8759 -0.0017 0.4825
vn -0.1773 -0.3932 -0.9022
vn -0.1204 -0.6356 -0.7626
vn -0.4360 -0.5779 -0.6899
vn -0.4904 -0.3209 -0.8102
vn -0.1204 -0.9000 -0.4190
vn -0.4360 -0.8149 -0.3819
vn -0.1754 -0.9732 -0.1490
vn -0.4893 -0.8661 -0.1027
vn -0.8537 -0.5094 -0.1078
vn -0.7522 -0.5222 -0.4018
vn -0.9587 -0.2251 -0.1736
vn -0.8535 -0.2347 -0.4652
vn -0.1865 0.9666 -0.1760
vn -0.1454 0.8246 -0.5467
vn -0.4940 0.7236 -0.4820
vn -0.5100 0.8517 -0.1206
vn -0.1454 0.3172 -0.9372
vn -0.4940 0.2805 -0.8229
vn -0.1882 -0.0775 -0.9791
vn -0.5113 -0.1017 -0.8534
vn -0.8759 -0.0017 -0.4825
vn -0.8146 0.3537 -0.4597
vn -0.9794 0.1228 -0.1602
vn -0.8761 0.4665 -0.1221
vn 0.1773 -0.3932 0.9022
vn 0.1204 -0.6356 0.7626
vn 0.4360 -0.5779 0.6899
vn 0.4904 -0.3209 0.8102
vn 0.1204 -0.9000 0.4190
vn 0.4360 -0.8149 0.3819
vn 0.1754 -0.9732 0.1490
vn 0.4893 -0.8661 0.1027
vn 0.8537 -0.5094 0.1078
vn 0.7522 -0.5222 0.4018
vn 0.9587 -0.2251 0.1736
vn 0.8535 -0.2347 0.4652
vn 0.1882 -0.0775 0.9791
vn 0.5113 -0.1017 0.8534
vn 0.4940 0.2805 0.8229
vn 0.1454 0.3172 0.9372
vn 0.8759 -0.0017 0.4825
vn 0.8146 0.3537 0.4597
vn 0.9794 0.1228 0.1602
vn 0.8761 0.4665 0.1221
vn 0.5100 0.8517 0.1206
vn 0.4940 0.7236 0.4820
vn 0.1865 0.9666 0.1760
vn 0.1454 0.8246 0.5467
vn 0.1754 -0.9732 -0.1490
vn 0.1204 -0.9000 -0.4190
vn 0.4360 -0.8149 -0.3819
vn 0.4893 -0.8661 -0.1027
vn 0.1204 -0.6356 -0.7626
vn 0.4360 -0.5779 -0.6899
vn 0.1773 -0.3932 -0.9022
vn 0.4904 -0.3209 -0.8102
vn 0.8535 -0.2347 -0.4652
vn 0.7522 -0.5222 -0.4018
vn 0.9587 -0.2251 -0.1736
vn 0.8537 -0.5094 -0.1078
vn 0.9794 0.1228 -0.1602
vn 0.8759 -0.0017 -0.4825
vn 0.8146 0.3537 -0.4597
vn 0.8761 0.4665 -0.1221
vn 0.5113 -0.1017 -0.8534
vn 0.4940 0.2805 -0.8229
vn 0.1882 -0.0775 -0.9791
vn 0.1454 0.3172 -0.9372
vn 0.1454 0.8246 -0.5467
vn 0.4940 0.7236 -0.4820
vn 0.1865 0.9666 -0.1760
vn 0.5100 0.8517 -0.1206
vn -0.0000 0.9657 -0.2598
vn -0.0000 0.8316 -0.5554
vn -0.0000 0.3237 -0.9461
vn -0.0000 0.0037 -1.0000
vn 0.9658 -0.2595 -0.0000
vn 0.8658 -0.5003 -0.0001
vn 0.5012 -0.8653 -0.0001
vn 0.2615 -0.9652 -0.0001
vn -0.9659 -0.2588 -0.0000
vn -0.9658 -0.2595 -0.0000
vn -0.8658 -0.5003 -0.0001
vn -0.8660 -0.5000 -0.0000
vn -0.5012 -0.8653 -0.0001
vn -0.5000 -0.8660 -0.0000
vn -0.2615 -0.9652 -0.0001
vn -0.2588 -0.9659 -0.0000
vn -0.2615 -0.9652 0.0001
vn -0.5012 -0.8653 0.0001
vn -0.8658 -0.5003 0.0001
vn 0.9658 0.2595 -0.0000
vn 0.8658 0.5003 0.0001
vn 0.5012 0.8653 0.0001
vn 0.2615 0.9652 0.0001
vn -0.2615 0.9652 0.0001
vn -0.5012 0.8653 0.0001
vn -0.8658 0.5003 0.0001
vn -0.9658 0.2595 -0.0000
vn 0.2615 -0.9652 0.0001
vn 0.5012 -0.8653 0.0001
vn 0.8658 -0.5003 0.0001
vn -0.8658 0.5003 -0.0001
vn -0.5012 0.8653 -0.0001
vn -0.2615 0.9652 -0.0001
vn 0.2588 -0.9659 -0.0000
vn 0.5000 -0.8660 -0.0000
vn 0.8660 -0.5000 -0.0000
vn 0.9659 -0.2588 -0.0000
vn -0.0000 -0.9734 -0.2292
vn -0.0000 -0.9032 -0.4291
vn -0.0000 -0.6462 -0.7631
vn -0.0000 -0.4709 -0.8822
vn -0.0000 -0.9734 0.2292
vn -0.0000 -0.9032 0.4291
vn -0.0000 -0.6462 0.7631
vn -0.0000 -0.4709 0.8822
vn -0.2588 0.9659 -0.0000
vn -0.5000 0.8660 -0.0000
vn -0.8660 0.5000 -0.0000
vn -0.9659 0.2588 -0.0000
vn 0.9659 0.2588 -0.0000
vn 0.8658 0.5003 -0.0001
vn 0.8660 0.5000 -0.0000
vn 0.5012 0.8653 -0.0001
vn 0.5000 0.8660 -0.0000
vn 0.2615 0.9652 -0.0001
vn 0.2588 0.9659 -0.0000
vn -0.0000 0.9657 0.2598
vn -0.0000 0.8316 0.5554
vn -0.0000 0.3237 0.9461
vn -0.0000 0.0037 1.0000
vt 0.137500 0.504494
vt 0.250000 0.504494
vt 0.250000 0.562500
vt 0.137500 0.562500
vt 0.637500 0.504167
vt 0.750000 0.504167
vt 0.750000 0.562500
vt 0.637500 0.562500
vt 0.250000 0.687500
vt 0.362500 0.687500
vt 0.362500 0.745506
vt 0.250000 0.745506
vt 0.137500 0.687500
vt 0.137500 0.745506
vt 0.637500 0.687500
vt 0.750000 0.687500
vt 0.750000 0.745833
vt 0.637500 0.745833
vt 0.433610 0.262500
vt 0.566390 0.262500
vt 0.566390 0.375000
vt 0.433610 0.375000
vt 0.435634 0.625000
vt 0.564366 0.625000
vt 0.564366 0.687500
vt 0.435634 0.687500
vt 0.750000 0.625000
vt 0.637500 0.625000
vt 0.250000 0.625000
vt 0.362500 0.625000
vt 0.137500 0.625000
vt 0.433610 0.875000
vt 0.566390 0.875000
vt 0.566390 0.987500
vt 0.433610 0.987500
vt 0.862500 0.562500
vt 0.862500 0.625000
vt 0.362500 0.562500
vt 0.435634 0.562500
vt 0.564366 0.562500
vt 0.566390 0.487500
vt 0.433610 0.487500
vt 0.435634 0.504499
vt 0.564366 0.504394
vt 0.433610 0.762500
vt 0.566390 0.762500
vt 0.435634 0.125000
vt 0.564366 0.125000
vt 0.564366 0.187500
vt 0.435634 0.187500
vt 0.862500 0.504167
vt 0.862500 0.687500
vt 0.435634 0.062500
vt 0.564366 0.062500
vt 0.362500 0.504494
vt 0.862500 0.745833
vt 0.564366 0.745606
vt 0.435634 0.745501
vt 0.564366 0.245606
vt 0.435634 0.245501
vt 0.435634 0.004499
vt 0.375000 0.003997
vt 0.375000 0.001789
vt 0.434993 0.002268
vt 0.125000 0.746004
vt 0.131258 0.745623
vt 0.131522 0.747943
vt 0.125000 0.748211
vt 0.137500 0.747925
vt 0.137500 0.750000
vt 0.131522 0.750000
vt 0.432080 1.000000
vt 0.375000 0.993478
vt 0.375000 0.987500
vt 0.432080 0.000000
vt 0.375000 0.000000
vt 0.625000 0.987500
vt 0.590128 1.000000
vt 0.563579 1.000000
vt 0.862500 0.750000
vt 0.862500 0.747804
vt 0.875000 0.747521
vt 0.875000 0.749365
vt 0.875000 0.745633
vt 0.625000 0.004367
vt 0.594273 0.004317
vt 0.593629 0.002266
vt 0.625000 0.002479
vt 0.564366 0.004394
vt 0.565007 0.002232
vt 0.563579 0.000000
vt 0.590128 0.000000
vt 0.402061 0.262500
vt 0.401825 0.256522
vt 0.432080 0.256258
vt 0.375000 0.262500
vt 0.375000 0.256522
vt 0.125000 0.504377
vt 0.131522 0.500000
vt 0.137500 0.500000
vt 0.375000 0.245623
vt 0.405727 0.245496
vt 0.406372 0.247663
vt 0.375000 0.250000
vt 0.434993 0.247732
vt 0.398333 0.253292
vt 0.862500 0.500000
vt 0.868478 0.500000
vt 0.875000 0.504367
vt 0.625000 0.262500
vt 0.594115 0.262500
vt 0.590128 0.256522
vt 0.625000 0.256522
vt 0.563579 0.256258
vt 0.565007 0.247768
vt 0.593628 0.247734
vt 0.594273 0.245683
vt 0.625000 0.245633
vt 0.625000 0.250000
vt 0.585590 0.253292
vt 0.375000 0.762500
vt 0.375000 0.756522
vt 0.432080 0.756258
vt 0.362500 0.750000
vt 0.362500 0.747925
vt 0.368478 0.747943
vt 0.368478 0.750000
vt 0.368742 0.745623
vt 0.405727 0.745496
vt 0.406372 0.747663
vt 0.434993 0.747732
vt 0.371708 0.748211
vt 0.563579 0.756258
vt 0.625000 0.756522
vt 0.625000 0.762500
vt 0.565007 0.747768
vt 0.593628 0.747734
vt 0.594273 0.745683
vt 0.631258 0.745634
vt 0.631522 0.747521
vt 0.637500 0.747804
vt 0.637500 0.750000
vt 0.631522 0.750000
vt 0.628292 0.747198
vt 0.362500 0.500000
vt 0.368478 0.500000
vt 0.368742 0.504377
vt 0.375000 0.487500
vt 0.402062 0.487500
vt 0.401825 0.493478
vt 0.375000 0.493478
vt 0.432080 0.493742
vt 0.434993 0.502268
vt 0.406372 0.502337
vt 0.405727 0.504504
vt 0.398333 0.496708
vt 0.565007 0.502232
vt 0.593629 0.502266
vt 0.594273 0.504317
vt 0.563579 0.493742
vt 0.590128 0.493478
vt 0.594115 0.487500
vt 0.625000 0.487500
vt 0.625000 0.493478
vt 0.631258 0.504367
vt 0.631522 0.500000
vt 0.637500 0.500000
vt 0.585590 0.496708
vt 0.750000 0.500000
vt 0.625000 0.375000
vt 0.593683 0.375000
vt 0.405317 0.562500
vt 0.368750 0.562500
vt 0.405317 0.187500
vt 0.405317 0.125000
vt 0.375000 0.187500
vt 0.375000 0.125000
vt 0.125000 0.625000
vt 0.125000 0.562500
vt 0.125000 0.687500
vt 0.375000 0.062500
vt 0.405317 0.062500
vt 0.594683 0.687500
vt 0.631250 0.687500
vt 0.875000 0.687500
vt 0.625000 0.062500
vt 0.594683 0.062500
vt 0.368750 0.687500
vt 0.405317 0.687500
vt 0.594683 0.187500
vt 0.625000 0.187500
vt 0.875000 0.562500
vt 0.368750 0.625000
vt 0.405317 0.625000
vt 0.250000 0.500000
vt 0.375000 0.375000
vt 0.402293 0.375000
vt 0.250000 0.747907
vt 0.250000 0.750000
vt 0.375000 0.875000
vt 0.875000 0.625000
vt 0.625000 0.125000
vt 0.594683 0.125000
vt 0.594683 0.562500
vt 0.594683 0.625000
vt 0.631250 0.562500
vt 0.631250 0.625000
vt 0.131250 0.687500
vt 0.750000 0.747774
vt 0.750000 0.750000
vt 0.625000 0.875000
s 1
usemtl remote
f 32/1/1 151/2/1 5/3/1 144/4/1
f 93/5/2 155/6/2 6/7/2 148/8/2
f 4/9/1 131/10/1 56/11/1 159/12/1
f 119/13/1 4/9/1 159/12/1 8/14/1
f 124/15/2 3/16/2 163/17/2 69/18/2
f 31/19/3 44/20/3 156/21/3 152/22/3
f 111/23/4 116/24/4 123/25/4 132/26/4
f 148/8/2 6/7/2 1/27/2 115/28/2
f 2/29/1 112/30/1 131/10/1 4/9/1
f 103/31/1 2/29/1 4/9/1 119/13/1
f 160/32/5 164/33/5 19/34/5 9/35/5
f 6/7/2 136/36/2 108/37/2 1/27/2
f 5/3/1 140/38/1 112/30/1 2/29/1
f 139/39/4 147/40/4 116/24/4 111/23/4
f 152/22/3 156/21/3 92/41/3 80/42/3
f 81/43/4 91/44/4 147/40/4 139/39/4
f 55/45/5 67/46/5 164/33/5 160/32/5
f 144/4/1 5/3/1 2/29/1 103/31/1
f 104/47/6 107/48/6 135/49/6 143/50/6
f 155/6/2 43/51/2 136/36/2 6/7/2
f 1/27/2 108/37/2 127/52/2 3/16/2
f 120/53/6 128/54/6 107/48/6 104/47/6
f 115/28/2 1/27/2 3/16/2 124/15/2
f 151/2/1 79/55/1 140/38/1 5/3/1
f 3/16/2 127/52/2 20/56/2 163/17/2
f 132/26/4 123/25/4 68/57/4 57/58/4
f 143/50/6 135/49/6 45/59/6 33/60/6
f 7/61/7 10/62/8 12/63/9 11/64/10
f 10/65/8 14/66/11 15/67/12 12/68/9
f 8/14/13 13/69/14 15/67/12 14/66/11
f 13/69/14 17/70/15 18/71/16 15/67/12
f 9/35/17 16/72/18 18/73/16 17/74/15
f 16/75/18 11/64/10 12/63/9 18/76/16
f 12/68/9 15/67/12 18/71/16
f 19/34/19 22/77/20 24/78/21 23/79/22
f 22/80/20 26/81/23 27/82/24 24/83/21
f 20/56/25 25/84/26 27/82/24 26/81/23
f 25/85/26 29/86/27 30/87/28 27/88/24
f 21/89/29 28/90/30 30/87/28 29/86/27
f 28/90/30 23/91/22 24/92/21 30/87/28
f 24/92/21 27/88/24 30/87/28
f 31/19/31 34/93/32 36/94/33 35/95/34
f 34/93/32 38/96/35 39/97/36 36/94/33
f 32/1/37 37/98/38 39/99/36 38/100/35
f 37/101/38 41/102/39 42/103/40 39/104/36
f 33/60/41 40/105/42 42/103/40 41/102/39
f 40/105/42 35/95/34 36/94/33 42/103/40
f 36/94/33 39/97/36 42/106/40
f 43/51/43 46/107/44 48/108/45 47/109/46
f 46/110/44 50/111/47 51/112/48 48/113/45
f 44/20/49 49/114/50 51/112/48 50/111/47
f 49/114/50 53/115/51 54/116/52 51/112/48
f 45/59/53 52/117/54 54/116/52 53/115/51
f 52/117/54 47/118/46 48/119/45 54/116/52
f 48/113/45 51/112/48 54/120/52
f 55/45/55 58/121/56 60/122/57 59/123/58
f 58/124/56 62/125/59 63/126/60 60/127/57
f 56/11/61 61/128/62 63/126/60 62/125/59
f 61/128/62 65/129/63 66/130/64 63/126/60
f 57/58/65 64/131/66 66/130/64 65/129/63
f 64/131/66 59/123/58 60/122/57 66/130/64
f 60/127/57 63/126/60 66/132/64
f 67/46/67 70/133/68 72/134/69 71/135/70
f 70/133/68 74/136/71 75/137/72 72/134/69
f 68/57/73 73/138/74 75/137/72 74/136/71
f 73/138/74 77/139/75 78/140/76 75/137/72
f 69/18/77 76/141/78 78/140/76 77/139/75
f 76/141/78 71/142/70 72/143/69 78/140/76
f 72/143/69 75/144/72 78/140/76
f 79/55/79 82/145/80 84/146/81 83/147/82
f 82/148/80 86/149/83 87/150/84 84/151/81
f 80/42/85 85/152/86 87/150/84 86/149/83
f 85/152/86 89/153/87 90/154/88 87/150/84
f 81/43/89 88/155/90 90/154/88 89/153/87
f 88/155/90 83/147/82 84/146/81 90/154/88
f 84/151/81 87/150/84 90/156/88
f 91/44/91 94/157/92 96/158/93 95/159/94
f 94/157/92 98/160/95 99/161/96 96/158/93
f 92/41/97 97/162/98 99/161/96 98/160/95
f 97/162/98 101/163/99 102/164/100 99/161/96
f 93/5/101 100/165/102 102/166/100 101/167/99
f 100/165/102 95/159/94 96/158/93 102/166/100
f 96/168/93 99/161/96 102/164/100
f 9/35/17 19/34/19 23/79/22 16/72/18
f 16/75/18 23/91/22 28/90/30 11/64/10
f 11/64/10 28/90/30 21/89/29 7/61/7
f 43/51/43 155/6/103 157/169/104 46/107/44
f 46/110/44 157/170/104 158/171/105 50/111/47
f 50/111/47 158/171/105 156/21/106 44/20/49
f 33/60/41 45/59/53 53/115/51 40/105/42
f 40/105/42 53/115/51 49/114/50 35/95/34
f 35/95/34 49/114/50 44/20/49 31/19/31
f 57/58/65 68/57/73 74/136/71 64/131/66
f 64/131/66 74/136/71 70/133/68 59/123/58
f 59/123/58 70/133/68 67/46/67 55/45/55
f 81/43/89 139/39/107 141/172/108 88/155/90
f 88/155/90 141/172/108 142/173/109 83/147/82
f 83/147/82 142/173/109 140/38/110 79/55/79
f 80/42/85 92/41/97 98/160/95 85/152/86
f 85/152/86 98/160/95 94/157/92 89/153/87
f 89/153/87 94/157/92 91/44/91 81/43/89
f 104/47/111 143/50/112 145/174/113 106/175/114
f 106/175/114 145/174/113 146/176/115 105/177/116
f 105/178/116 146/179/115 144/4/117 103/31/118
f 103/31/118 119/13/119 121/180/120 105/178/116
f 105/177/116 121/181/120 122/182/121 106/175/114
f 106/175/114 122/182/121 120/53/112 104/47/111
f 68/57/73 123/25/122 125/183/123 73/138/74
f 73/138/74 125/183/123 126/184/124 77/139/75
f 77/139/75 126/184/124 124/15/125 69/18/77
f 20/56/25 127/52/126 129/185/127 25/84/26
f 25/85/26 129/186/127 130/187/128 29/86/27
f 29/86/27 130/187/128 128/54/129 21/89/29
f 56/11/61 131/10/130 133/188/131 61/128/62
f 61/128/62 133/188/131 134/189/132 65/129/63
f 65/129/63 134/189/132 132/26/107 57/58/65
f 45/59/53 135/49/129 137/190/133 52/117/54
f 52/117/54 137/190/133 138/191/134 47/118/46
f 47/109/46 138/192/134 136/36/135 43/51/43
f 112/30/136 140/38/110 142/173/109 114/193/137
f 114/193/137 142/173/109 141/172/108 113/194/138
f 113/194/138 141/172/108 139/39/107 111/23/139
f 32/1/37 144/4/117 146/179/115 37/98/38
f 37/101/38 146/176/115 145/174/113 41/102/39
f 41/102/39 145/174/113 143/50/112 33/60/41
f 79/55/79 151/2/140 153/195/141 82/145/80
f 82/148/80 153/196/141 154/197/142 86/149/83
f 86/149/83 154/197/142 152/22/143 80/42/85
f 8/14/13 159/12/144 161/198/145 13/69/14
f 13/69/14 161/198/145 162/199/146 17/70/15
f 17/74/15 162/200/146 160/32/147 9/35/17
f 108/37/148 136/36/135 138/192/134 110/201/149
f 110/202/149 138/191/134 137/190/133 109/203/150
f 109/203/150 137/190/133 135/49/129 107/48/151
f 92/41/97 156/21/106 158/171/105 97/162/98
f 97/162/98 158/171/105 157/170/104 101/163/99
f 101/167/99 157/169/104 155/6/103 93/5/101
f 107/48/151 128/54/129 130/187/128 109/203/150
f 109/203/150 130/187/128 129/186/127 110/202/149
f 110/201/149 129/185/127 127/52/126 108/37/148
f 116/24/152 147/40/122 149/204/153 118/205/154
f 118/205/154 149/204/153 150/206/155 117/207/156
f 117/207/156 150/206/155 148/8/157 115/28/158
f 7/61/7 120/53/112 122/181/121 10/62/8
f 10/65/8 122/180/121 121/208/120 14/66/11
f 14/66/11 121/208/120 119/13/119 8/14/13
f 69/18/77 163/17/159 165/209/160 76/141/78
f 76/141/78 165/209/160 166/210/161 71/142/70
f 71/135/70 166/211/161 164/33/162 67/46/67
f 111/23/139 132/26/107 134/189/132 113/194/138
f 113/194/138 134/189/132 133/188/131 114/193/137
f 114/193/137 133/188/131 131/10/130 112/30/136
f 55/45/55 160/32/147 162/200/146 58/121/56
f 58/124/56 162/199/146 161/198/145 62/125/59
f 62/125/59 161/198/145 159/12/144 56/11/61
f 115/28/158 124/15/125 126/184/124 117/207/156
f 117/207/156 126/184/124 125/183/123 118/205/154
f 118/205/154 125/183/123 123/25/122 116/24/152
f 31/19/31 152/22/143 154/197/142 34/93/32
f 34/93/32 154/197/142 153/196/141 38/96/35
f 38/100/35 153/195/141 151/2/140 32/1/37
f 93/5/101 148/8/157 150/206/155 100/165/102
f 100/165/102 150/206/155 149/204/153 95/159/94
f 95/159/94 149/204/153 147/40/122 91/44/91
f 19/34/19 164/33/162 166/211/161 22/77/20
f 22/80/20 166/210/161 165/209/160 26/81/23
f 26/81/23 165/209/160 163/17/159 20/56/25
f 7/61/6 21/89/6 128/54/6 120/53/6
