# Blender 4.1.1
# www.blender.org
mtllib Sign2.mtl
o signy
v -0.014758 0.356109 0.363231
v -0.014758 0.384705 0.403590
v -0.020429 0.384705 0.363231
v -0.014758 0.364485 0.391770
v -0.018032 0.368195 0.386533
v -0.018768 0.384705 0.391770
v -0.018768 0.364485 0.363231
v -0.014758 0.899443 0.403590
v -0.014758 0.928039 0.363231
v -0.020429 0.899443 0.363231
v -0.014758 0.919664 0.391770
v -0.018032 0.915953 0.386533
v -0.018768 0.919664 0.363231
v -0.018768 0.899443 0.391770
v -0.014758 0.356109 -0.363231
v -0.020429 0.384705 -0.363231
v -0.014758 0.384705 -0.403590
v -0.018768 0.364485 -0.363231
v -0.018032 0.368195 -0.386533
v -0.018768 0.384705 -0.391770
v -0.014758 0.364485 -0.391770
v -0.014758 0.928039 -0.363231
v -0.014758 0.899443 -0.403590
v -0.020429 0.899443 -0.363231
v -0.014758 0.919664 -0.391770
v -0.018032 0.915953 -0.386533
v -0.018768 0.899443 -0.391770
v -0.018768 0.919664 -0.363231
v 0.087309 0.356109 0.363231
v 0.092979 0.384705 0.363231
v 0.087309 0.384705 0.403590
v 0.091318 0.364485 0.363231
v 0.090583 0.368195 0.386533
v 0.091318 0.384705 0.391770
v 0.087309 0.364485 0.391770
v 0.087309 0.928039 0.363231
v 0.087309 0.899443 0.403590
v 0.092979 0.899443 0.363231
v 0.087309 0.919664 0.391770
v 0.090583 0.915953 0.386533
v 0.091318 0.899443 0.391770
v 0.091318 0.919664 0.363231
v 0.087309 0.356109 -0.363231
v 0.087309 0.384705 -0.403590
v 0.092979 0.384705 -0.363231
v 0.087309 0.364485 -0.391770
v 0.090583 0.368195 -0.386533
v 0.091318 0.384705 -0.391770
v 0.091318 0.364485 -0.363231
v 0.087309 0.928039 -0.363231
v 0.092979 0.899443 -0.363231
v 0.087309 0.899443 -0.403590
v 0.091318 0.919664 -0.363231
v 0.090583 0.915953 -0.386533
v 0.091318 0.899443 -0.391770
v 0.087309 0.919664 -0.391770
v 0.039640 0.457450 0.052316
v 0.039640 -0.457451 0.052316
v 0.039640 0.457450 -0.052316
v 0.039640 -0.457451 -0.052316
v -0.039640 0.457450 0.052316
v -0.039640 -0.457451 0.052316
v -0.039640 0.457450 -0.052316
v -0.039640 -0.457451 -0.052316
v -0.062536 0.291654 0.445101
v -0.062536 0.326696 0.494557
v -0.069485 0.326696 0.445101
v -0.062536 0.301918 0.480072
v -0.066548 0.306465 0.473655
v -0.067449 0.326696 0.480072
v -0.067449 0.301918 0.445101
v -0.062536 0.957452 0.494557
v -0.062536 0.992494 0.445101
v -0.069485 0.957452 0.445101
v -0.062536 0.982230 0.480072
v -0.066548 0.977683 0.473655
v -0.067449 0.982230 0.445101
v -0.067449 0.957452 0.480072
v -0.062536 0.291654 -0.445101
v -0.069485 0.326696 -0.445101
v -0.062536 0.326696 -0.494557
v -0.067449 0.301918 -0.445101
v -0.066548 0.306465 -0.473655
v -0.067449 0.326696 -0.480072
v -0.062536 0.301918 -0.480072
v -0.062536 0.992494 -0.445101
v -0.062536 0.957452 -0.494557
v -0.069485 0.957452 -0.445101
v -0.062536 0.982230 -0.480072
v -0.066548 0.977683 -0.473655
v -0.067449 0.957452 -0.480072
v -0.067449 0.982230 -0.445101
v 0.062536 0.291654 0.445101
v 0.069485 0.326696 0.445101
v 0.062536 0.326696 0.494557
v 0.067449 0.301918 0.445101
v 0.066548 0.306465 0.473655
v 0.067449 0.326696 0.480072
v 0.062536 0.301918 0.480072
v 0.062536 0.992494 0.445101
v 0.062536 0.957452 0.494557
v 0.069485 0.957452 0.445101
v 0.062536 0.982230 0.480072
v 0.066548 0.977683 0.473655
v 0.067449 0.957452 0.480072
v 0.067449 0.982230 0.445101
v 0.062536 0.291654 -0.445101
v 0.062536 0.326696 -0.494557
v 0.069485 0.326696 -0.445101
v 0.062536 0.301918 -0.480072
v 0.066548 0.306465 -0.473655
v 0.067449 0.326696 -0.480072
v 0.067449 0.301918 -0.445101
v 0.062536 0.992494 -0.445101
v 0.069485 0.957452 -0.445101
v 0.062536 0.957452 -0.494557
v 0.067449 0.982230 -0.445101
v 0.066548 0.977683 -0.473655
v 0.067449 0.957452 -0.480072
v 0.062536 0.982230 -0.480072
vn 0.7873 -0.1561 0.5965
vn 0.7873 0.1561 0.5965
vn -0.7873 0.1561 0.5965
vn -0.7873 -0.1561 0.5965
vn 0.9990 -0.0367 -0.0260
vn 0.9990 0.0367 -0.0260
vn 0.9990 0.0367 0.0260
vn 0.9990 -0.0367 0.0260
vn 0.6799 0.7271 -0.0955
vn -0.6798 0.7271 -0.0955
vn -0.6798 0.7271 0.0955
vn 0.6799 0.7271 0.0955
vn -0.9990 -0.0367 0.0260
vn -0.9990 0.0367 0.0260
vn -0.9990 0.0367 -0.0260
vn -0.9990 -0.0367 -0.0260
vn -0.7873 -0.1561 -0.5965
vn -0.7873 0.1561 -0.5965
vn 0.7873 0.1561 -0.5965
vn 0.7873 -0.1561 -0.5965
vn -0.6798 -0.7271 0.0955
vn -0.7139 -0.5714 0.4048
vn -0.9717 -0.1927 0.1365
vn -0.9803 -0.1944 0.0341
vn -0.9891 -0.0486 0.1390
vn -0.7139 0.5714 0.4048
vn -0.9717 0.1927 0.1365
vn -0.9891 0.0486 0.1390
vn -0.9803 0.1944 0.0341
vn -0.6798 -0.7271 -0.0955
vn -0.9803 -0.1944 -0.0341
vn -0.9717 -0.1927 -0.1365
vn -0.7139 -0.5714 -0.4048
vn -0.9891 -0.0486 -0.1390
vn -0.7139 0.5714 -0.4048
vn -0.9717 0.1927 -0.1365
vn -0.9803 0.1944 -0.0341
vn -0.9891 0.0486 -0.1390
vn 0.6799 -0.7271 0.0955
vn 0.9803 -0.1944 0.0341
vn 0.9717 -0.1927 0.1365
vn 0.7139 -0.5714 0.4048
vn 0.9891 -0.0486 0.1390
vn 0.7139 0.5714 0.4048
vn 0.9717 0.1927 0.1365
vn 0.9803 0.1944 0.0341
vn 0.9891 0.0486 0.1390
vn 0.6799 -0.7271 -0.0955
vn 0.7139 -0.5714 -0.4048
vn 0.9717 -0.1927 -0.1365
vn 0.9803 -0.1944 -0.0341
vn 0.9891 -0.0486 -0.1390
vn 0.9803 0.1944 -0.0341
vn 0.9717 0.1927 -0.1365
vn 0.7139 0.5714 -0.4048
vn 0.9891 0.0486 -0.1390
vn 0.9717 0.1926 0.1364
vn 0.9717 0.1926 -0.1365
vn -0.9717 0.1926 -0.1364
vn -0.9717 0.1926 0.1365
vn 0.9717 -0.1927 -0.1364
vn -0.9717 -0.1926 -0.1365
vn -0.9717 -0.1926 0.1365
vn 0.9717 -0.1926 0.1365
vn -0.6799 0.7271 -0.0955
vn -0.6799 0.7271 0.0955
vn -0.6799 -0.7271 0.0955
vn -0.6799 -0.7271 -0.0955
vt -0.059516 0.125700
vt -0.059516 0.874299
vt -0.984574 0.874299
vt -0.984574 0.125700
vt 0.968325 0.125700
vt 0.968325 0.874299
vt 0.043268 0.874299
vt 0.043268 0.125700
vt 0.968325 0.957477
vt 0.968325 1.706076
vt 0.043268 1.706076
vt 0.043268 0.957477
vt 3.024009 0.125700
vt 3.024009 0.874300
vt 2.098951 0.874299
vt 2.098951 0.125700
vt 1.996167 0.125700
vt 1.996167 0.874299
vt 1.071109 0.874299
vt 1.071110 0.125700
vt 0.043268 -0.706076
vt -0.008124 -0.706076
vt -0.008125 -0.730088
vt 0.043268 -0.747665
vt -1.035966 0.125700
vt -1.035966 0.101689
vt -0.984574 0.084112
vt 3.024009 0.084112
vt 3.053680 0.084112
vt 3.075401 0.125700
vt -0.984574 0.915888
vt -1.014245 0.915888
vt -1.035966 0.874300
vt 0.043268 1.747665
vt 0.013597 1.747665
vt -0.008125 1.706076
vt 3.075401 0.874300
vt 3.075401 0.898311
vt 3.024009 0.915888
vt 0.968325 -0.706076
vt 0.968325 -0.747665
vt 0.997997 -0.747665
vt 1.019718 -0.706076
vt 2.047559 0.125700
vt 2.047559 0.101689
vt 2.098951 0.084112
vt 1.996167 0.084112
vt 2.025838 0.084112
vt 1.019717 1.706076
vt 1.019717 1.730088
vt 0.968325 1.747665
vt 2.047559 0.874300
vt 2.047559 0.898311
vt 1.996167 0.915888
vt 2.098951 0.915888
vt 2.069280 0.915888
vt 0.043268 0.042523
vt 0.043268 0.084112
vt -0.008125 0.089971
vt -0.008124 0.042523
vt -0.008125 0.125700
vt -0.059516 0.084112
vt -0.008125 0.957477
vt -0.000884 0.915888
vt 0.043268 0.915888
vt -0.008125 0.874300
vt -0.059516 0.915888
vt 0.968325 0.042523
vt 1.019717 0.042523
vt 1.012477 0.084112
vt 0.968325 0.084112
vt 1.019717 0.125700
vt 1.071109 0.084112
vt 0.968325 0.915888
vt 1.019717 0.910029
vt 1.019717 0.957477
vt 1.019717 0.874300
vt 1.071109 0.915888
vt 1.115283 0.500000
vt 1.115283 0.660196
vt 2.345850 0.660196
vt 2.345850 0.500000
vt -0.115283 0.660196
vt -0.115283 0.820392
vt 1.115283 0.820392
vt -0.115283 0.179608
vt -0.115283 0.339804
vt 1.115283 0.339804
vt 1.115283 0.179608
vt -1.345850 0.500000
vt -1.345850 0.660196
vt -0.115283 0.500000
vt -0.364308 1.216978
vt 1.364307 1.216978
vt 1.364307 1.831530
vt -0.364308 1.831530
vt -0.364308 0.534142
vt 1.364307 0.534142
vt 1.364307 1.148694
vt -0.364308 1.148694
vt 1.556376 0.534142
vt 3.284991 0.534142
vt 3.284991 1.148694
vt 1.556376 1.148694
vt -0.364308 -0.831530
vt 1.364307 -0.831530
vt 1.364307 -0.216978
vt -0.364308 -0.216978
vt -0.364308 -0.148694
vt 1.364307 -0.148694
vt 1.364307 0.465858
vt -0.364308 0.465858
vt -2.284991 1.148694
vt -2.284991 1.182836
vt -2.340436 1.182836
vt -2.381025 1.148694
vt -0.364308 1.865672
vt -0.419753 1.865672
vt -0.460342 1.831530
vt -0.460342 -0.831530
vt -0.460342 -0.851242
vt -0.364308 -0.865672
vt 1.460342 1.831530
vt 1.460342 1.851242
vt 1.364307 1.865672
vt 3.381025 1.148694
vt 3.381025 1.168406
vt 3.284991 1.182836
vt 1.364307 -0.865672
vt 1.419753 -0.865672
vt 1.460342 -0.831530
vt -2.284991 0.534142
vt -2.381025 0.534142
vt -2.381025 0.514430
vt -2.284991 0.500000
vt -0.364308 -0.182836
vt -0.419753 -0.182836
vt -0.460342 -0.216978
vt -0.460342 -0.148694
vt -0.460342 -0.168406
vt 3.284991 0.500000
vt 3.340436 0.500000
vt 3.381025 0.534142
vt 1.364307 -0.182836
vt 1.419753 -0.182836
vt 1.460342 -0.148694
vt 1.460342 -0.216978
vt 1.460342 -0.197266
vt -0.556376 1.148694
vt -0.460342 1.148694
vt -0.446812 1.182836
vt -0.556376 1.182836
vt -0.364308 1.182836
vt -0.460342 1.216978
vt 1.556376 1.182836
vt 1.460342 1.178026
vt 1.460342 1.148694
vt 1.364307 1.182836
vt 1.460342 1.216978
vt -0.556376 0.534142
vt -0.556376 0.500000
vt -0.460342 0.504810
vt -0.460342 0.534142
vt -0.364308 0.500000
vt -0.460342 0.465858
vt 1.460342 0.534142
vt 1.446812 0.500000
vt 1.556376 0.500000
vt 1.364307 0.500000
vt 1.460342 0.465858
s 1
usemtl Text
f 31/1/1 37/2/2 8/3/3 2/4/4
f 45/5/5 51/6/6 38/7/7 30/8/8
f 50/9/9 22/10/10 9/11/11 36/12/12
f 3/13/13 10/14/14 24/15/15 16/16/16
f 17/17/17 23/18/18 52/19/19 44/20/20
f 1/21/21 4/22/22 5/23/23 7/24/24
f 2/4/4 6/25/25 5/26/23 4/27/22
f 3/13/13 7/28/24 5/29/23 6/30/25
f 8/3/3 11/31/26 12/32/27 14/33/28
f 9/11/11 13/34/29 12/35/27 11/36/26
f 10/14/14 14/37/28 12/38/27 13/39/29
f 15/40/30 18/41/31 19/42/32 21/43/33
f 16/16/16 20/44/34 19/45/32 18/46/31
f 17/17/17 21/47/33 19/48/32 20/44/34
f 22/10/10 25/49/35 26/50/36 28/51/37
f 23/18/18 27/52/38 26/53/36 25/54/35
f 24/15/15 28/55/37 26/56/36 27/52/38
f 29/57/39 32/58/40 33/59/41 35/60/42
f 30/8/8 34/61/43 33/59/41 32/58/40
f 31/1/1 35/62/42 33/59/41 34/61/43
f 36/12/12 39/63/44 40/64/45 42/65/46
f 37/2/2 41/66/47 40/64/45 39/67/44
f 38/7/7 42/65/46 40/64/45 41/66/47
f 43/68/48 46/69/49 47/70/50 49/71/51
f 44/20/20 48/72/52 47/70/50 46/73/49
f 45/5/5 49/71/51 47/70/50 48/72/52
f 50/9/9 53/74/53 54/75/54 56/76/55
f 51/6/6 55/77/56 54/75/54 53/74/53
f 52/19/19 56/78/55 54/75/54 55/77/56
f 15/40/30 1/21/21 7/24/24 18/41/31
f 18/46/31 7/28/24 3/13/13 16/16/16
f 2/4/4 8/3/3 14/33/28 6/25/25
f 6/30/25 14/37/28 10/14/14 3/13/13
f 9/11/11 22/10/10 28/51/37 13/34/29
f 13/39/29 28/55/37 24/15/15 10/14/14
f 23/18/18 17/17/17 20/44/34 27/52/38
f 27/52/38 20/44/34 16/16/16 24/15/15
f 43/68/48 15/40/30 21/43/33 46/69/49
f 46/73/49 21/47/33 17/17/17 44/20/20
f 22/10/10 50/9/9 56/76/55 25/49/35
f 25/54/35 56/78/55 52/19/19 23/18/18
f 51/6/6 45/5/5 48/72/52 55/77/56
f 55/77/56 48/72/52 44/20/20 52/19/19
f 29/57/39 43/68/48 49/71/51 32/58/40
f 32/58/40 49/71/51 45/5/5 30/8/8
f 50/9/9 36/12/12 42/65/46 53/74/53
f 53/74/53 42/65/46 38/7/7 51/6/6
f 37/2/2 31/1/1 34/61/43 41/66/47
f 41/66/47 34/61/43 30/8/8 38/7/7
f 1/21/21 29/57/39 35/60/42 4/22/22
f 4/27/22 35/62/42 31/1/1 2/4/4
f 36/12/12 9/11/11 11/36/26 39/63/44
f 39/67/44 11/31/26 8/3/3 37/2/2
f 15/40/30 43/68/48 29/57/39 1/21/21
usemtl woody
f 57/79/57 59/80/58 63/81/59 61/82/60
f 60/83/61 64/84/62 63/85/59 59/80/58
f 64/86/62 62/87/63 61/88/60 63/89/59
f 62/90/63 64/91/62 60/83/61 58/92/64
f 58/92/64 60/83/61 59/80/58 57/79/57
f 62/87/63 58/92/64 57/79/57 61/88/60
f 95/93/1 101/94/2 72/95/3 66/96/4
f 109/97/5 115/98/6 102/99/7 94/100/8
f 114/101/9 86/102/65 73/103/66 100/104/12
f 67/105/13 74/106/14 88/107/15 80/108/16
f 81/109/17 87/110/18 116/111/19 108/112/20
f 65/113/67 68/114/22 69/115/23 71/116/24
f 66/96/4 70/117/25 69/118/23 68/119/22
f 67/105/13 71/120/24 69/121/23 70/122/25
f 72/95/3 75/123/26 76/124/27 78/125/28
f 73/103/66 77/126/29 76/127/27 75/128/26
f 74/106/14 78/129/28 76/130/27 77/131/29
f 79/132/68 82/133/31 83/134/32 85/135/33
f 80/108/16 84/136/34 83/137/32 82/138/31
f 81/109/17 85/139/33 83/140/32 84/136/34
f 86/102/65 89/141/35 90/142/36 92/143/37
f 87/110/18 91/144/38 90/145/36 89/146/35
f 88/107/15 92/147/37 90/148/36 91/144/38
f 93/149/39 96/150/40 97/151/41 99/152/42
f 94/100/8 98/153/43 97/151/41 96/150/40
f 95/93/1 99/154/42 97/151/41 98/153/43
f 100/104/12 103/155/44 104/156/45 106/157/46
f 101/94/2 105/158/47 104/156/45 103/159/44
f 102/99/7 106/157/46 104/156/45 105/158/47
f 107/160/48 110/161/49 111/162/50 113/163/51
f 108/112/20 112/164/52 111/162/50 110/165/49
f 109/97/5 113/163/51 111/162/50 112/164/52
f 114/101/9 117/166/53 118/167/54 120/168/55
f 115/98/6 119/169/56 118/167/54 117/166/53
f 116/111/19 120/170/55 118/167/54 119/169/56
f 79/132/68 65/113/67 71/116/24 82/133/31
f 82/138/31 71/120/24 67/105/13 80/108/16
f 66/96/4 72/95/3 78/125/28 70/117/25
f 70/122/25 78/129/28 74/106/14 67/105/13
f 73/103/66 86/102/65 92/143/37 77/126/29
f 77/131/29 92/147/37 88/107/15 74/106/14
f 87/110/18 81/109/17 84/136/34 91/144/38
f 91/144/38 84/136/34 80/108/16 88/107/15
f 107/160/48 79/132/68 85/135/33 110/161/49
f 110/165/49 85/139/33 81/109/17 108/112/20
f 86/102/65 114/101/9 120/168/55 89/141/35
f 89/146/35 120/170/55 116/111/19 87/110/18
f 115/98/6 109/97/5 112/164/52 119/169/56
f 119/169/56 112/164/52 108/112/20 116/111/19
f 93/149/39 107/160/48 113/163/51 96/150/40
f 96/150/40 113/163/51 109/97/5 94/100/8
f 114/101/9 100/104/12 106/157/46 117/166/53
f 117/166/53 106/157/46 102/99/7 115/98/6
f 101/94/2 95/93/1 98/153/43 105/158/47
f 105/158/47 98/153/43 94/100/8 102/99/7
f 65/113/67 93/149/39 99/152/42 68/114/22
f 68/119/22 99/154/42 95/93/1 66/96/4
f 100/104/12 73/103/66 75/128/26 103/155/44
f 103/159/44 75/123/26 72/95/3 101/94/2
f 79/132/68 107/160/48 93/149/39 65/113/67
